<?xml version="1.0" encoding="UTF-8" standalone="no"?>
<!-- Created with Inkscape (http://www.inkscape.org/) -->

<svg
   xmlns:dc="http://purl.org/dc/elements/1.1/"
   xmlns:cc="http://creativecommons.org/ns#"
   xmlns:rdf="http://www.w3.org/1999/02/22-rdf-syntax-ns#"
   xmlns:svg="http://www.w3.org/2000/svg"
   xmlns="http://www.w3.org/2000/svg"
   xmlns:sodipodi="http://sodipodi.sourceforge.net/DTD/sodipodi-0.dtd"
   xmlns:inkscape="http://www.inkscape.org/namespaces/inkscape"
   version="1.1"
   id="svg2"
   width="1840"
   height="1202"
   viewBox="0 0 1840 1202"
   sodipodi:docname="logo.svg"
   inkscape:version="0.92.3 (2405546, 2018-03-11)">
  <metadata
     id="metadata8">
    <rdf:RDF>
      <cc:Work
         rdf:about="">
        <dc:format>image/svg+xml</dc:format>
        <dc:type
           rdf:resource="http://purl.org/dc/dcmitype/StillImage" />
        <dc:title></dc:title>
      </cc:Work>
    </rdf:RDF>
  </metadata>
  <defs
     id="defs6" />
  <sodipodi:namedview
     pagecolor="#ffffff"
     bordercolor="#666666"
     borderopacity="1"
     objecttolerance="10"
     gridtolerance="10"
     guidetolerance="10"
     inkscape:pageopacity="0"
     inkscape:pageshadow="2"
     inkscape:window-width="1920"
     inkscape:window-height="1051"
     id="namedview4"
     showgrid="false"
     inkscape:zoom="0.125"
     inkscape:cx="2697"
     inkscape:cy="1907"
     inkscape:window-x="-9"
     inkscape:window-y="-9"
     inkscape:window-maximized="1"
     inkscape:current-layer="svg2" />
  <g
     id="g4570"
     transform="translate(-31.5,-31.5)">
    <path
       style="fill:#f1e3d9"
       d="m 109.5,1203 c -16.5,-16 -40.8,-40 -54,-53 l -24,-23 v -546.6 c 0,-446.9 0.24,-546.54 1.3,-547.6 1.05,-1.05 19.36,-1.3 94.5,-1.3 h 93.2 l 53.7,53.96 53.8,53.94 0.2,168.1 0.3,168 h 44.5 44.5 l 0.5,-220.7 c 0.4,-179.23 0.7,-220.94 1.8,-222 1,-1.05 19.5,-1.3 95,-1.3 h 93.7 l 53.7,53.98 53.8,54.02 -0.1,386.5 c -0.1,212.6 -0.5,458.5 -0.8,547 l -0.6,160 h -93.8 c -51.6,0 -94.5,0 -95.3,-1 -0.8,0 -25.2,-24 -54.2,-53 l -52.7,-52 -0.5,-189 -0.5,-188.5 -43.5,0.4 c -23.9,0.2 -43.9,0.7 -44.4,1.2 -0.6,0.5 -1.2,93.2 -1.6,240.1 -0.3,131.8 -0.9,239.8 -1.3,240.8 -0.7,1 -20.5,1 -94,1 h -93.2 z m 1142.5,-12 c -23,-24 -47,-47 -53,-53 l -11,-10 -1,-547 c 0,-345.5 0,-547.05 1,-548 1,-1.32 19,-1.5 155,-1.5 162,0 167,0.12 194,4.61 37,6.01 70,16.72 99,32.58 18,9.96 51,31.26 64,40.41 35,26.7 68,60.8 92,96.9 20,29.6 45,75.3 53,98.3 11,29.7 19,68 24,111.7 3,24.7 3,97.7 3,292.5 -1,192.9 -2,244 -4,263.5 -1,11.3 -9,50 -13,64 -15,62 -46,111 -91,144 -31,24 -77,42 -122,49 -22,3 -51,4 -203,4 h -144 z m 246,-227.4 c 37,-9.4 58,-30.7 68,-68.4 6,-22.6 6,-26.6 7,-78.2 1,-58.5 1,-426.9 0,-480.7 0,-29.3 -1,-38.5 -2,-39.5 -1,-1 -10,-1.4 -42,-1.6 -23,-0.1 -42,0.2 -43,0.6 -1,0.7 -1,63.2 -2,333.9 0,183.1 0,333.7 0,334.7 1,2.1 3,2 14,-0.8 z m -511.1,159.4 c -5.7,-4 -18.9,-12 -29.3,-18 l -18.8,-12 h -15.7 c -19.8,-1 -19.7,-1 -20.5,-5 -1.1,-6 -0.7,-11 1.3,-13 1.8,-2 2.6,-3 18.3,-3 9.4,0 17.1,-1 18.3,-2 1.1,0 10.5,-6 21,-13 24.7,-15 34.8,-21 36.8,-21 2.7,0 3.7,3 3.7,10 0,10 0,10 -27.8,27 -7.2,4 -13.2,9 -13.2,9 0,1 8.1,7 22.9,15 15.2,10 18.1,12 19.1,18 1,7 -2,14 -4.9,14 -0.5,0 -5.5,-3 -11.2,-6 z m -82.8,-126.9 c -1.8,-1.1 -2.6,-10.4 -1.4,-15 0.8,-3.2 1.4,-3.6 11.8,-7.5 l 11,-4.1 v -18 -17.9 l -2.5,-1.3 c -1.4,-0.7 -6.1,-2.6 -10.6,-4.3 -6.1,-2.3 -8.4,-3.6 -9.2,-5.6 -1.6,-3.5 -1.5,-12.6 0.2,-14.9 1.4,-1.9 1.5,-1.9 7.2,-0.1 8,2.5 60.2,21.4 76.4,27.7 7.8,3 13,5.8 14,6.9 1,2.5 1,15.6 0,18.2 -1,1.1 -3.5,3 -6.3,4.3 -11.3,4.9 -86,32.5 -88.1,32.5 -0.6,0 -1.7,-0.4 -2.5,-0.9 z m 67.7,-43 c 1.2,-0.6 2.2,-1.6 2.2,-2 0,-0.8 -19.7,-8.4 -25.1,-9.6 -2.4,-0.6 -2.7,-0.3 -3.2,3.2 -1,5.7 -0.8,13.2 0.3,15.3 0.9,1.8 1.5,1.7 12.3,-1.9 6.3,-2.1 12.3,-4.4 13.5,-5 z m -34.1,-103.1 c -7.2,-1.3 -17.1,-6.3 -22.2,-11.5 -2.7,-2.6 -6.1,-7.7 -8.1,-11.9 -3,-6.3 -3.6,-8.8 -4.5,-19.5 -0.6,-6.6 -0.9,-18.6 -0.7,-26.6 0.3,-12.2 0.6,-14.7 2.1,-16.2 1.6,-1.6 5.3,-1.8 47.5,-2.1 39.5,-0.3 46,-0.2 47.7,1.1 1.5,1.5 1.5,2.7 1.5,23.4 0,24.1 -1,32.6 -4.7,41 -5.6,11.3 -18.1,20.2 -31.3,22.3 -7.5,1.1 -20.3,1.1 -27.3,0 z m 32.3,-23.6 c 4,-2.3 6.3,-4.5 8.6,-8.2 3.8,-6.3 4.4,-9.4 4.4,-24.1 v -11.4 l -30.2,0.6 c -16.9,0.4 -30.6,1.1 -31.1,1.6 -0.5,0.5 -0.8,6.2 -0.5,13.3 0.3,11.1 0.7,13 3.2,18.2 4.9,10 13.3,13.7 30.1,13.3 9.1,-0.2 10.5,-0.5 15.5,-3.3 z m -67.6,-216 c -0.4,-1.4 -0.4,-5.8 -0.1,-9.7 0.6,-8.5 -0.2,-7.7 19.3,-18.9 l 14.4,-8.2 v -13.3 c 0,-15.6 2,-14 -17.8,-14.6 -7.4,-0.3 -13.8,-0.9 -14.4,-1.5 -0.6,-0.6 -1.2,-3.9 -1.5,-7.4 -0.5,-5.3 -0.2,-6.7 1.5,-8.8 l 2,-2.5 46.8,0.1 c 43.8,0.2 46.9,0.3 48.4,2 1,2.2 2,47.5 0,57.3 -2.6,15.5 -13.3,25.5 -28.9,26.8 -10.6,0.9 -16.6,-1.4 -25,-9.2 -3.8,-3.6 -7.2,-6.5 -7.6,-6.5 -0.5,0 -5.4,2.6 -10.9,5.9 -20.5,11.9 -25,13.4 -26.2,8.5 z m 76.2,-23.6 c 3.6,-3.5 4.3,-8.1 4.4,-25.6 v -15.3 l -13.3,0.3 -13.2,0.3 -0.3,11.9 c -0.1,6.5 0.2,15.1 0.7,19 0.9,6.1 1.4,7.5 4.2,10 2.9,2.6 3.7,2.8 9.1,2.4 4.6,-0.3 6.4,-1 8.4,-3 z m -73.3,-131.8 c -1.5,-0.6 -2.4,-2.1 -2.9,-4.5 -0.8,-4.4 0,-11.3 1.6,-12.9 1.4,-1.4 93.8,-2.1 96,-0.7 1,0.7 2,3.3 2,8.4 0,11.6 5,10.7 -48.8,10.6 -25.1,0 -46.7,-0.4 -47.9,-0.9 z m -2.3,-83.5 c -2,-2.4 -0.9,-14.1 1.5,-16.4 1.1,-1 6.4,-3.5 11.7,-5.6 l 9.8,-3.7 v -17.2 c 0,-9.4 -0.4,-17.6 -0.8,-18.3 -0.4,-0.6 -4.8,-2.6 -9.7,-4.4 -11.3,-4.1 -13.5,-6.2 -13.5,-12.8 0,-2.7 0.5,-6.2 1,-7.7 1,-2.4 1.4,-2.6 5.1,-2 4,0.6 46.7,15.8 75.9,27 8.6,3.3 15.2,6.4 16,7.7 2,1.6 2,4 2,10.4 0,9.6 0,10 -10,13.8 -26.9,10.6 -82.9,30.7 -85.4,30.7 -1.3,0 -2.9,-0.7 -3.6,-1.5 z m 57.2,-37.5 c 13,-4.7 14.7,-5.5 13.3,-6.9 -1.4,-1.3 -23.1,-9.1 -25.4,-9.1 -2.2,0 -3.1,3.5 -3.1,12.5 0,9.1 -0.4,9 15.2,3.5 z m -47.2,-113.7 c -9.1,-0.5 -11,-1.8 -11,-7.8 0,-2.4 0.3,-5.6 0.6,-7.4 0.8,-3.8 1.3,-3.9 23.4,-4.9 l 16.5,-0.7 0.3,-19.9 c 0.1,-12.9 -0.1,-20.3 -0.8,-21 -0.6,-0.6 -8.6,-1.3 -19,-1.6 -12.8,-0.3 -18.3,-0.9 -19.2,-1.8 -1.4,-1.4 -1.8,-15.6 -0.4,-16.9 0.4,-0.5 22.1,-0.8 48.3,-0.8 45.8,0 47.5,0.1 49.3,1.9 1,2.3 2,13.2 0,15.6 -1,1.2 -4.4,1.6 -17.7,2.2 -9.2,0.3 -17.6,0.7 -18.6,0.7 -1.6,0.1 -1.7,1.8 -1.7,21 v 20.8 l 8.2,0.6 c 4.6,0.4 12.7,0.7 18,0.7 11.8,0 12.8,0.6 12.8,9.4 0,10.8 3,10.1 -42.2,10.2 -21.6,0.1 -42.7,-0.1 -46.8,-0.3 z"
       id="path4584"
       inkscape:connector-curvature="0" />
    <path
       style="fill:#eedcce"
       d="m 89.57,1181 c -27.54,-27 -51.42,-50 -53.07,-51 l -3,-2 -0.74,-22 c -0.41,-12 -0.63,-258.7 -0.5,-547.3 0.21,-465.2 0.41,-524.88 1.74,-525.72 1.62,-1.03 181.9,-1.38 185.7,-0.37 1.2,0.32 2.6,1.78 3.3,3.24 0.6,1.46 23.8,25.6 51.5,53.65 l 50.4,51 0.1,166.5 c 0,103.1 0.4,167.1 1,168 0.8,1.3 7.1,1.5 44.7,1.8 24.1,0.1 44.8,0 46,-0.3 l 2.3,-0.5 0.2,-220.5 c 0.3,-179.2 0.5,-220.64 1.6,-221.7 1,-1.04 19.2,-1.36 92,-1.6 49.9,-0.16 92.1,0 93.9,0.29 2.1,0.38 3.4,1.33 3.9,2.74 0.4,1.2 23.5,25.37 51.5,53.72 l 50.9,51.55 v 545.2 545.3 h -92.6 -92.6 l -49.4,-49 c -27.2,-27 -51.3,-50 -53.6,-52 -4,-2 -4.4,-3 -5,-8 -0.3,-3 -0.6,-88 -0.7,-188.6 -0.1,-147.4 -0.4,-183.4 -1.4,-184.8 -1.2,-1.6 -4.2,-1.7 -45.4,-1.4 -28.7,0.2 -44.6,0.7 -45.2,1.3 -0.7,0.7 -1.1,45.2 -1.3,137 -0.1,74.8 -0.3,183.5 -0.6,240.5 l -0.4,105 h -92.6 -92.6 z m 1157.43,1 c -27,-27 -51,-50 -54,-51 -3,-2 -4,-4 -4,-6 -1,-2 -1,-248 -1,-547.1 0,-536.64 0,-543.84 2,-544.86 2,-1.34 259,-1.39 298,0 30,1.04 44,2.49 66,7.07 43,8.99 74,22.97 118,52.74 36,24.75 53,38.85 79,66.35 19,20.6 28,31.8 42,53.3 28,41.4 48,83.1 58,118.5 8,26.9 15,67 16,98.5 2,31.5 2,428.6 1,482.5 -1,50 -2,62.2 -7,91 -8,39 -15,63 -28,90 -17,33 -38,60 -64,81 -36,29 -93,50 -148,55 -8,1 -68,1 -169,2 h -156 z m 254,-218.1 c 35,-9.2 57,-31.7 66,-68.9 6,-23.7 6,-23.5 7,-94.5 2,-95.3 1,-499 -1,-503.2 -1,-1.8 -2,-3.5 -3,-3.9 -2,-0.4 -21,-0.6 -44,-0.5 -32,0.1 -43,0.5 -43,1.4 -2,2.2 -2,669.8 0,672 0,1.2 8,0.2 18,-2.4 z m -533.7,146.1 -28.1,-18 h -9.3 c -5.1,-1 -12.7,-1 -17,-1 -9.1,0 -9.9,-1 -9.9,-9 0,-8 0.4,-8 19.2,-9 10.6,0 17.1,-1 18.7,-2 1.3,-1 8.9,-5 17,-10 22.5,-15 38.5,-24 40.3,-24 1.8,0 2.8,2 2.8,10 0,5 0,6 -2.3,8 -1.2,2 -10.1,8 -19.7,14 -9.6,6 -17.9,11 -18.5,12 -1.2,2 -1.3,2 20,15 9.4,6 17.9,12 18.8,13 1.7,1 1.7,3 1.7,10 0,7 -1,8 -3,8 -1.8,0 -10.8,-5 -30.7,-17 z m -63.4,-116.1 c -1.3,-2.5 -0.8,-13.4 0.8,-15 0.5,-0.5 5.2,-2.6 10.3,-4.5 5.1,-1.9 9.9,-3.9 10.7,-4.5 1,-0.9 1.3,-5.3 1.3,-19 0,-20.5 1.4,-18 -12.4,-23 -5,-1.8 -9.2,-4 -10.1,-5.2 -2,-2.9 -2,-13 0,-14.7 1.7,-1.4 6.1,-0.1 46,14.5 40.6,14.9 49.2,18.4 49.5,20.1 1,2.5 1,15.4 0,17.4 -1,1.9 -11.6,6.3 -42.5,17.8 -21.1,7.9 -50.3,18.2 -51.5,18.2 -0.5,0 -1.4,-1 -2.1,-2.1 z m 54.7,-35 c 12.8,-4.4 17.4,-6.5 17.4,-7.9 0,-1.7 -29.4,-11.9 -30.7,-10.6 -1,1 -1.7,16.9 -0.9,20.1 0.4,1.4 1,2.5 1.5,2.5 0.5,0 6.2,-1.8 12.7,-4.1 z m -21.6,-110 c -7.3,-1.4 -16.3,-6.4 -21.4,-11.9 -7,-7.4 -10.3,-15.4 -11.6,-27.5 -1.5,-13.5 -1,-43 0.8,-44.7 1,-1 10.9,-1.3 47.3,-1.3 44.8,0 46.1,0.1 47.6,2 1.3,1.7 1.3,5.4 1.3,24.5 -1.1,29.8 -2.7,36.1 -12.1,46.4 -5.8,6.4 -12.7,10.2 -21.6,12.1 -7.4,1.6 -23.2,1.8 -30.3,0.4 z m 32.6,-21.2 c 2.8,-1.4 6.3,-4 7.8,-5.8 4.9,-5.8 5.8,-9.4 6.4,-24.6 0.4,-12.7 0.3,-14.3 -1.2,-14.9 -1,-0.4 -15.3,-0.3 -31.9,0.2 l -30.2,0.9 0.1,13.5 c 0,11.7 0.3,14.2 2.3,18.5 5.2,11.6 13.6,15.7 31.6,15.1 8.4,-0.2 10.8,-0.7 15.1,-2.9 z m -66,-217.3 c -0.8,-2.2 -0.6,-13.5 0.3,-15.9 0.4,-1.1 7.6,-5.8 16.7,-11 l 15.9,-9.1 0.3,-14.1 0.3,-14.2 -3.3,-0.5 c -1.8,-0.3 -9,-0.7 -16,-0.9 -7,-0.1 -13.1,-0.6 -13.5,-1 -0.4,-0.4 -0.9,-3.6 -1.1,-7.1 -0.7,-10.3 -4.4,-9.6 49.2,-9.6 39.8,0 46.5,0.2 47.6,1.5 1,1.1 1,8.2 1,29.7 -1,32.3 -1.2,34.5 -8.6,42.7 -6.2,6.9 -12.6,9.6 -23.4,9.6 -7.6,0 -9.1,-0.3 -13.9,-3 -3,-1.6 -7.2,-5.1 -9.4,-7.7 -2.2,-2.7 -4.7,-4.8 -5.5,-4.8 -0.8,0 -6.5,2.9 -12.6,6.4 -19.5,11.2 -22.7,12.4 -24,9 z m 72.9,-20.8 c 6.2,-2.6 7,-5.7 7,-26.1 v -18 h -14 -14 v 17 c 0,19.4 1,23.6 5.9,26.6 3.7,2.3 10.3,2.5 15.1,0.5 z m -71.5,-136.6 c -1.5,-1.5 -2,-3.3 -2,-7.3 0,-9.2 -3.1,-8.7 49.8,-8.7 52.2,0 48.2,-0.8 48.2,9 0,9.8 4,9 -48,9 -44.7,0 -46.1,-0.1 -48,-2 z m -1.6,-83.6 c -0.8,-3.3 0,-12.2 1.3,-13.5 0.6,-0.6 5.7,-3 11.4,-5.3 l 10.4,-4.2 0.3,-17.8 c 0.1,-11.4 -0.1,-18.3 -0.8,-19.1 -0.6,-0.7 -5.1,-2.7 -10,-4.5 -11.8,-4.3 -12.2,-4.6 -12.8,-11.2 -0.5,-6.2 0.9,-9.8 3.8,-9.8 4.4,0 89.6,31.6 92.2,34.2 1.8,1.4 1.8,3.4 1.8,9.6 0,4.7 0,8.5 -1.3,9.5 -1.8,2.4 -88.5,34.7 -93.2,34.7 -1.8,0 -2.6,-0.7 -3.1,-2.6 z m 69.8,-39.3 c 5.7,-2.2 3.8,-3.5 -14.1,-9.7 -8.6,-3 -12.9,-4 -13.6,-3.3 -1.5,1.5 -2,19.6 -0.5,21.4 1,1.2 3,0.8 13.3,-2.9 6.7,-2.4 13.4,-4.9 14.9,-5.5 z m -63,-111 c -2.9,-0.4 -5.7,-1.3 -6.2,-2.1 -0.6,-0.8 -1,-3.8 -1,-6.7 0,-6 1.6,-8.2 6.3,-8.4 1.8,-0.1 10.2,-0.4 18.7,-0.8 l 15.5,-0.6 0.3,-20.9 c 0.1,-13.8 -0.1,-21.3 -0.8,-22 -0.6,-0.6 -8.4,-1.3 -19.1,-1.6 -16.6,-0.5 -18.2,-0.7 -19.6,-2.5 -1.9,-2.6 -1.3,-13.2 0.8,-14.6 0.8,-0.5 20.7,-0.8 47.7,-0.7 39.9,0.3 46.4,0.5 47.2,1.8 1,2.2 1,13.6 -0.3,14.8 -0.6,0.5 -8.9,1.2 -18.4,1.4 -10.2,0.2 -17.7,0.8 -18.3,1.4 -0.7,0.7 -0.9,8.4 -0.8,22 l 0.3,20.9 17.9,0.7 c 11,0.5 18.3,1.2 19.2,1.9 2.4,1.7 2.4,13.2 -0.3,15 -1.3,1.1 -9.5,1.4 -42.7,1.5 -22.6,0.1 -43.5,-0.1 -46.4,-0.5 z"
       id="path4582"
       inkscape:connector-curvature="0" />
    <path
       style="fill:#e9c7ba"
       d="m 37.25,1129 c -1.24,0 -2.7,-1 -3.25,-2 -0.67,-1 -0.92,-185.7 -0.75,-547.7 l 0.25,-545.8 93.7,-0.26 c 88.5,-0.24 93.8,-0.15 94.7,1.5 0.5,1.06 1.2,89.26 1.6,221.06 0.4,120.6 1,219.4 1.4,219.6 0.3,0.2 44.1,0.7 97.2,1.1 l 96.6,0.8 0.6,-18.9 c 0.4,-10.4 0.7,-109.8 0.7,-221 0,-155.76 0.3,-202.27 1.2,-203.2 0.9,-0.92 23.3,-1.2 94.5,-1.2 91.1,0 93.3,0 94.3,1.93 1.6,2.99 1.4,1092.07 -0.2,1094.07 -0.9,1 -21.9,1 -88.8,1 -48.1,0 -90.1,0 -93.3,-1 -3.3,0 -6.2,-1 -6.8,-2 -0.5,-1 -0.9,-46 -0.9,-109 0,-114.9 -1.6,-342.8 -2.6,-361.8 l -0.6,-11.2 h -82.7 c -45.5,0 -88.9,0.3 -96.3,0.6 l -13.5,0.7 -0.8,240.6 c -0.5,161.1 -1,241.1 -1.7,242.1 -0.8,1 -20.2,1 -91.7,1 -49.82,0 -91.61,0 -92.85,-1 z m 1153.75,0 c -1,-2 -2,-9 -2,-42 -1,-48 -1,-873.8 0,-978.5 l 1,-75 145,-0.3 c 93,-0.2 153,0.1 166,0.76 57,2.95 109,18.91 151,46.76 44,28.58 78,76.28 96,134.78 12,40.6 17,70.8 18,125.5 1,45.7 1,356.4 0,454.5 l -1,71 -3,18 c -13,74.2 -32,119.5 -69,160.5 -37,43 -96,72 -164,82 -17,2 -78,3 -217,3 -102,0 -120,0 -121,-1 z m 289,-161.4 c 23,-2.2 39,-7.6 54,-18.1 18,-12.9 30,-35.4 36,-66.5 5,-21.5 5,-11.4 5,-304.5 v -280 l -4,-13.5 c -4,-16.9 -10,-34.8 -14,-43.1 -14,-28.1 -38,-42.8 -78,-48.4 -9,-1.2 -20,-1.5 -55,-1.3 l -43,0.3 -1,9.5 c -1,13.5 -1,766.5 0,767.5 1,1.3 83,-0.3 100,-1.9 z m -497.5,150.4 c -7.7,-4 -20.9,-13 -29.4,-18 l -15.3,-9 h -11.7 c -6.4,0 -13.9,0 -16.6,-1 h -5 l -0.3,-7 c -0.2,-3 0.2,-7 0.7,-7 0.8,-1 6.2,-2 17.2,-2 18.3,-1 15.9,0 36.7,-13 24.7,-16 36.9,-23 39,-23 4.2,0 4.2,14 -0.2,18 -1.2,1 -9.8,7 -19.1,13 -9.4,5 -17.7,11 -18.5,12 -1.3,1 -1.2,1 1.7,4 1.7,1 10.8,7 20.2,13 18.1,11 19.1,12 19.1,21 0,5 -1.4,8 -3.3,8 -0.7,0 -7.5,-4 -15.2,-9 z m -77.8,-123.7 c -1.3,-1.2 -0.8,-14 0.5,-15.1 0.7,-0.6 5.6,-2.6 10.8,-4.6 5.2,-2 10.1,-4.3 10.7,-5.3 2,-2.6 1.8,-33.2 -0.2,-36 -0.9,-1.2 -5.1,-3.4 -10.1,-5.2 -13.1,-4.8 -12.4,-4.1 -12.4,-12.2 0,-5.7 0.3,-7.1 1.7,-7.6 1,-0.4 6.5,1 12.8,3.1 11.8,4.1 65.1,23.8 75,27.7 l 6,2.4 0.5,5.6 c 2,7.3 1,12.5 -2.4,14.4 -4.3,2.8 -87.3,33.5 -90.7,33.5 -0.8,0 -1.9,-0.3 -2.2,-0.7 z m 54.4,-34.9 c 12.1,-4.2 17.1,-6.5 17.6,-8 0.6,-1.9 -24.3,-11.4 -29.8,-11.4 h -2.9 v 11.5 c 0,11.5 0,11.5 2.4,11.5 1.3,0 7,-1.6 12.7,-3.6 z m -17.6,-110.4 c -20.1,-2.8 -32.9,-15 -36.5,-34.7 -0.6,-3.4 -1.2,-15.4 -1.3,-26.8 -0.2,-19.4 -0.1,-20.7 1.7,-22.1 1.7,-1.2 9.7,-1.4 47.2,-1.4 39.4,0 45.3,0.2 46.4,1.5 2,2 2,38 0.1,48 -2.9,17.4 -13.7,29.8 -29.4,33.9 -7.4,1.9 -20.6,2.7 -28.2,1.6 z m 18.7,-18 c 7.5,-1.2 12.4,-3.6 16.9,-8.3 5.6,-5.6 7.1,-11.4 7.3,-27 l 0.1,-13.2 h -32 -32 l -0.3,12.8 c -0.3,14.2 0.4,18.2 4.6,24.7 3.6,5.7 10.9,9.8 19.4,10.9 8.9,1.2 9.7,1.2 16,0.1 z m -55.8,-220.1 c -1.1,-1.8 -0.8,-14.3 0.4,-16.5 0.6,-1.1 8,-5.9 16.5,-10.8 8.6,-4.8 15.8,-9.4 16.1,-10.2 1.2,-3.1 0.6,-25 -0.7,-26.7 -1,-1.3 -4.2,-1.7 -16.7,-2.4 l -15.5,-0.8 v -7.5 c 0,-7.1 0.1,-7.4 2.5,-8.1 3.2,-0.9 85.6,-1.1 89.9,-0.3 l 3.1,0.7 -0.2,30.1 c -0.3,29 -0.4,30.3 -2.6,34.7 -5.4,11 -15.2,17 -27.6,17 -9.9,0 -16,-2.6 -22.4,-9.5 -2.6,-2.9 -5.3,-5.5 -6,-6 -0.8,-0.5 -6.1,2 -14.5,6.7 -20.3,11.5 -20.9,11.8 -22.3,9.6 z m 73.6,-21.8 c 5.1,-3.6 6.3,-8.1 6.8,-25.9 0.3,-11 0.1,-16.7 -0.6,-17.4 -1.2,-1.2 -27.6,-1.8 -28.7,-0.6 -1.1,1.1 -0.8,32.1 0.5,36.7 1.2,4.6 4.8,8.7 8.3,9.4 3.8,0.8 11.1,-0.3 13.7,-2.2 z m -67,-135 -6.4,-0.6 -0.9,-4.2 c -0.4,-2.3 -0.4,-5.7 0.1,-7.5 0.8,-3 1.2,-3.4 5.8,-4 6.1,-0.8 55.9,-0.8 75.4,0.1 l 14.5,0.6 v 7.5 7.5 l -15.5,0.6 c -19.2,0.8 -64.2,0.8 -73,0 z m -6.6,-83.3 c -1.2,-1.9 -0.8,-12.6 0.6,-14.3 0.6,-0.8 5.4,-3.1 10.6,-5.1 5.2,-2 10.2,-4.3 11,-5.2 1.3,-1.3 1.5,-4.3 1.2,-18.9 -0.4,-20.3 0.7,-18.4 -12.7,-23.2 -4.9,-1.8 -9.5,-3.8 -10.1,-4.6 -1.6,-2 -1.5,-12.5 0.2,-14.1 1.6,-1.6 8.3,0.5 46.8,14.6 33,12.1 45.3,16.9 46.9,18.5 2.1,1.9 2.1,14.3 0.9,17.4 -1.5,2.7 -8.7,5.6 -59.3,24 -34.5,12.6 -35,12.7 -36.1,10.9 z m 59.1,-36.5 c 7.1,-2.6 13,-5.4 13.3,-6.1 0.2,-0.7 -1.8,-2.2 -5,-3.6 -8.7,-3.8 -24.8,-8.8 -26.3,-8.2 -1.2,0.4 -1.5,2.8 -1.5,11.4 0,6 0.3,11.2 0.7,11.6 1.2,1.1 4.7,0.2 18.8,-5.1 z m -57.8,-116.4 c -1.3,-0.8 -1.7,-2.4 -1.7,-7.4 0,-4 0.5,-6.7 1.2,-7.1 0.7,-0.5 9.5,-1.1 19.6,-1.5 10.1,-0.4 18.5,-0.9 18.7,-1.1 0.2,-0.1 0.5,-9.9 0.7,-21.6 0.2,-16.8 0,-21.4 -1,-22.1 -0.7,-0.4 -9.2,-1.1 -18.8,-1.4 -11.7,-0.3 -18,-0.9 -19,-1.8 -1.1,-0.9 -1.4,-2.9 -1.2,-7.8 l 0.3,-6.6 46.9,-0.3 c 29.6,-0.1 47.3,0.1 48,0.8 1.6,1.3 1.6,12.8 -0.1,14.1 -0.6,0.6 -8.5,1.3 -18.4,1.6 -14.2,0.4 -17.6,0.8 -18.7,2.1 -0.9,1.1 -1.2,7.1 -1.2,21.9 0,19 0.1,20.3 1.9,21.3 1.1,0.6 8.9,1 18,1 15.1,0 16.2,0.1 18.2,2.1 1.9,1.8 1.9,3 1.9,7.6 0,3.2 -1.3,5.9 -2.1,6.4 -2,1.3 -90.9,1.1 -93.2,-0.2 z"
       id="path4580"
       inkscape:connector-curvature="0" />
    <path
       style="fill:#e1a798"
       d="m 45.5,1128 h -11 l -0.63,-52 c -0.61,-51 -0.68,-744.8 -0.11,-944.2 l 0.29,-97.8 h 93.45 93.5 l 0.4,2.25 c 0.3,1.24 0.7,100.75 1,221.05 0.2,120.4 0.6,219.1 0.9,219.3 1,1 195.4,1.7 196,0.7 0.4,-0.5 0.9,-100 1.3,-220.9 0.3,-120.9 0.7,-220.46 1,-221.15 0.3,-0.99 19.8,-1.25 93.3,-1.25 91,0 93.1,0 94.1,1.93 1.1,2.1 1.5,1086.07 0.4,1090.07 l -0.6,2 h -92.8 c -73,0 -93,0 -93.7,-1 -0.7,-1 -1.4,-86 -2,-241.1 -0.5,-131.8 -1.3,-240.1 -1.7,-240.7 -1,-1.6 -194.2,-1.7 -195.1,-0.2 -0.4,0.6 -0.9,109 -1.2,241 -0.4,132 -0.9,240 -1.2,241 -0.7,1 -158.55,2 -175.6,1 z m 1146.5,0 c -2,-2 -3,-3 -3,-545.7 0,-299.1 0,-544.81 0,-546.05 l 1,-2.25 h 150 c 150,0 173,0.45 193,3.59 37,5.91 66,15.06 95,29.81 23,12.09 37,22.18 54,38.8 49,48 77,119.7 82,211.9 2,27.9 2,499.4 0,530.5 -1,28.3 -7,61.7 -16,90.9 -21,74.5 -63,127.5 -126,158.5 -35,17 -75,27 -116,29 -9,0 -84,1 -165,2 -132,0 -148,0 -149,-1 z m 289,-159 c 53,-6.6 79,-32 90,-87 5,-20.3 5,-48.7 5,-329 l -1,-254.5 -2,-12 c -13,-54.6 -29,-76 -67,-88.6 -20,-6.4 -27,-7 -79,-7.6 -45,-0.5 -47,-0.4 -48,1.3 -1,2.1 -1,773.3 0,777.3 v 2.3 l 46,-0.5 c 27,-0.3 51,-1 56,-1.7 z m -487.4,155 c -2.1,-1 -15.1,-9 -28.9,-18 l -25.2,-15 -15,-1 c -20.9,0 -19.7,0 -19.3,-8 l 0.3,-6 15.5,-1 c 8.5,-1 16.4,-1 17.5,-1 1.1,-1 8.5,-5 16.5,-10 23.7,-15 40.7,-25 42.3,-25 1.9,0 2.7,2 2.7,7 0,8 -0.2,8 -19.4,20 -22.2,14 -22.5,14 -22.6,16 0,2 3.9,5 27.2,19 6.5,4 12.4,8 13.3,9 1.5,3 2.5,13 0.2,15 -1,1 -2.3,0 -5.1,-1 z m -88.6,-132.4 c -0.5,-1.3 -0.6,-4.6 -0.2,-7.2 l 0.7,-4.8 10,-3.9 c 5.5,-2.1 10.7,-4.5 11.5,-5.3 1.2,-1.2 1.5,-4.6 1.5,-17.7 0,-8.9 -0.3,-17.4 -0.7,-18.9 -0.7,-2.2 -2.2,-3.1 -9,-5.7 -12.4,-4.6 -13.2,-5.1 -14,-9.6 -1,-5.6 -0.1,-9.5 2.2,-9.5 3.2,0 86.6,30.2 91,33 1,0.6 1.6,3.2 1.8,8.2 0.2,6 0.1,7.7 -1.5,9.5 -1.2,1.4 -10.9,5.6 -27.8,11.9 -36.6,13.6 -61.4,22.4 -63.1,22.4 -0.8,0 -1.9,-1.1 -2.4,-2.4 z m 59,-33.1 c 13.3,-4.8 16.6,-6.9 14,-8.5 -2.6,-1.7 -22.3,-9.1 -27.1,-10.2 -7.7,-1.8 -7.9,-1.5 -7.9,11.5 0,6.3 0.3,11.7 0.7,12.1 1.3,1.3 7.2,-0.1 20.3,-4.9 z m -25,-110.6 c -12.5,-2.1 -24,-10.5 -29.2,-21.4 -4.1,-8.9 -5,-15.6 -5.2,-38.8 -0.1,-17.5 0.1,-20.9 1.4,-21.7 0.9,-0.6 19.8,-1 46.8,-1 42.2,0 45.3,0.1 46,1.7 1.2,2.9 0.6,41.3 -0.8,48.3 -0.6,3.6 -2.3,8.8 -3.6,11.6 -2.8,5.9 -11.1,14.2 -17.4,17.4 -8.3,4.2 -25.1,6 -38,3.9 z m 26.2,-16.9 c 6.2,-1.8 12.9,-7 16.1,-12.8 2.7,-4.8 3.1,-6.8 4,-18.8 0.7,-9.8 0.7,-14.1 -0.1,-15.9 l -1.2,-2.5 h -31.4 c -26.4,0 -31.5,0.2 -32.6,1.5 -0.8,1 -1.1,5.4 -0.8,15.2 0.3,12.7 0.5,14.2 3.1,19.6 5.1,10.3 13.8,14.6 29.7,14.7 5.2,0 11.2,-0.5 13.2,-1 z m -60.2,-222.5 c -1.3,-3.3 -1.3,-7 0,-11.6 0.9,-3.3 2.2,-4.2 15.7,-11.9 8,-4.6 15.4,-9.1 16.5,-10.2 1.5,-1.5 1.8,-3.4 1.7,-12.1 0,-5.6 -0.3,-12 -0.7,-14.2 l -0.7,-4 -15,-0.8 c -8.3,-0.4 -15.6,-1 -16.3,-1.2 -1.9,-0.7 -1.6,-13.1 0.4,-13.9 0.9,-0.3 21.7,-0.6 46.3,-0.6 33.4,0 45,0.3 45.9,1.2 2.2,2.4 0.6,56.6 -2.1,63 -4.3,10.3 -15.2,17.1 -27.2,17.2 -9.6,0 -16.5,-3.2 -23,-10.8 -2.7,-3.1 -5.4,-5.6 -6,-5.6 -0.6,0 -7.6,3.8 -15.5,8.4 -17.9,10.3 -18.7,10.6 -20,7.1 z m 72.4,-18 c 4.9,-2.3 6.6,-6.3 7.8,-17.8 1.1,-11.4 0.7,-26.2 -0.9,-27.8 -0.6,-0.6 -6.6,-0.8 -15.4,-0.7 l -14.4,0.3 v 18.5 c 0,20.6 0.7,23.9 5.9,27.1 3.8,2.3 12.5,2.5 17,0.4 z m -69.7,-137.2 c -3.8,-1 -5,-10 -1.7,-13.3 1.9,-1.9 3.3,-2 45.2,-2 23.8,0 44.3,0.3 45.5,0.6 2.1,0.6 2.3,1.2 2.3,7.4 0,6.2 -0.2,6.8 -2.3,7.4 -2.6,0.7 -86.3,0.6 -89,-0.1 z m -2.8,-84.7 c -1.3,-2.9 -0.4,-11.2 1.4,-12.3 0.7,-0.5 5.7,-2.6 11.2,-4.8 9.3,-3.8 10,-4.2 10.8,-7.5 0.5,-1.9 0.7,-10.3 0.5,-18.7 -0.2,-11.9 -0.6,-15.6 -1.8,-16.7 -0.8,-0.8 -6,-3.2 -11.5,-5.3 l -10,-3.8 -0.8,-4.5 c -0.6,-2.9 -0.5,-5.5 0.2,-7.4 1.4,-3.5 -0.1,-3.9 30,7.1 43.9,15.9 62.6,23.2 63.8,24.9 1.3,2.1 1.3,12.1 0.4,15.7 -1,2.7 -0.6,2.5 -57.4,23.3 -18.6,6.8 -34.3,12.4 -34.8,12.4 -0.5,0 -1.4,-1.1 -2,-2.4 z m 55.3,-32.2 c 18.6,-6.5 20.6,-7.7 17.5,-10.2 -1.5,-1.2 -25.8,-10.1 -29.9,-10.9 -2,-0.4 -3.3,-0.1 -3.9,0.8 -1,1.6 -1.2,23.2 -0.2,24.2 1.1,1.2 2.9,0.8 16.5,-3.9 z m -34.9,-118.3 c -10.5,-0.3 -19.5,-1 -20,-1.4 -0.9,-1 -0.7,-11.6 0.2,-12.5 0.3,-0.4 9.3,-1.1 19.8,-1.7 l 19.2,-1 0.3,-22 c 0.2,-19.8 0.1,-22.1 -1.5,-23.2 -1.1,-0.9 -6.4,-1.3 -16.7,-1.4 -8.3,-0.1 -16.5,-0.4 -18.1,-0.8 -2.9,-0.6 -3,-0.8 -3.3,-7.4 l -0.3,-6.7 h 46.9 c 52.2,0 48.2,-0.6 48.2,7.3 0,7.2 0,7.1 -19.9,7.7 -9.9,0.3 -18.3,0.9 -18.8,1.3 -0.4,0.5 -0.9,10.1 -1.1,21.5 -0.3,17.2 -0.1,21 1.1,22.7 1.4,1.8 2.9,2 18.9,2.3 9.9,0.2 17.8,0.8 18.5,1.4 1.3,1.4 1.3,11.2 0,12.7 -1.7,1.4 -45.9,2.1 -73.4,1.2 z"
       id="path4578"
       inkscape:connector-curvature="0" />
    <path
       style="fill:#d88878"
       d="m 35.31,1126 c -0.99,-2 -1.74,-1037.53 -0.78,-1068.75 l 0.69,-22.25 h 92.28 92.3 l 0.6,6.25 c 0.3,3.44 0.7,102.85 0.8,220.95 0.2,118 0.6,214.9 1,215.3 1,1.1 196.1,1.8 197.5,0.8 0.9,-0.7 1.4,-51.2 2,-221.8 l 0.8,-221 92.8,-0.26 92.7,-0.25 -0.2,545.71 -0.3,546.3 h -91.4 c -66.7,0 -91.7,0 -92.7,-1 -1.2,-1 -1.4,-21 -1.5,-118 -0.1,-64.8 -0.4,-172.8 -0.8,-240.3 -0.5,-107.6 -0.8,-122.9 -2.1,-123.7 -0.9,-0.6 -39.2,-1 -98.7,-1 -76.7,0 -97.4,0.3 -98,1.2 -0.4,0.7 -1,109.1 -1.3,240.8 -0.3,132 -0.9,240 -1.3,241 -0.6,1 -20.2,1 -92.2,1 -72.01,0 -91.55,0 -92.19,-1 z m 1155.69,-2 c -1,-2 -1,-247.3 -1,-545.6 0,-511.57 0,-542.36 2,-543.26 2,-1.23 289,-0.42 313,0.89 49,2.6 97,16.6 136,40 36,21.05 69,58.07 88,98.97 17,35 29,81 33,128.5 3,30.2 4,484.2 1,539 -3,55.8 -16,109.8 -38,151.8 -14,27.7 -36,54.7 -59,73.7 -36,29 -82,48 -137,55 -21,3 -52,4 -196,4 h -142 z m 262,-152 c 34,-1.5 50,-4.6 68,-13.1 26,-12.3 40,-32.5 50,-68.5 6,-24.7 6,-9.3 6,-312.4 v -277.5 l -3,-11.5 c -5,-24.4 -11,-42.4 -19,-56.4 -5,-8.4 -17,-20.7 -25,-25.4 -15,-8.9 -36,-15.2 -57,-17.3 -18,-1.7 -92,-1.8 -94,-0.1 -2,1.7 -3,778.7 -1,780.8 1,0.7 3,1.5 5,1.7 8,0.8 49,0.6 70,-0.3 z m -485.5,135 -28,-17 -16.5,-1 h -16.5 l -0.3,-7 -0.3,-6 h 7.8 c 4.3,0 12.1,0 17.3,-1 l 9.5,-1 27,-17 c 14.8,-9 27.9,-16 29,-16 1.7,0 2,0 2.3,5 0.2,4 -0.2,7 -0.8,8 -0.6,0 -9.2,6 -19.1,12 -9.8,6 -19.1,12 -20.6,14 l -2.8,2 3.4,3 c 1.9,2 11.3,8 20.8,14 9.5,5 17.8,11 18.4,12 1.5,3 0.7,12 -1.1,13 -0.8,0 -14.1,-8 -29.5,-17 z m -60.8,-114.7 c -1.2,-1.2 -0.7,-11 0.5,-12.1 0.7,-0.5 4.4,-2.1 8.3,-3.5 10.8,-3.8 12.5,-4.8 13.3,-7.6 0.4,-1.4 0.7,-10.1 0.7,-19.3 -0.1,-14 -0.3,-17.1 -1.7,-18.4 -0.8,-0.9 -6,-3.2 -11.4,-5.3 l -9.9,-3.7 -0.3,-6.2 c -0.2,-4.9 0,-6.2 1.2,-6.2 4.3,0 88.7,31.4 90.3,33.7 1.9,2.4 1.7,13.8 -0.2,15.7 -0.8,0.8 -5.2,2.9 -9.7,4.7 -13.3,5.1 -78.8,28.9 -79.7,28.9 -0.4,0 -1.1,-0.3 -1.4,-0.7 z m 53.2,-31.3 c 21.7,-7.7 24.1,-9.4 18.3,-12.4 -3.2,-1.6 -26.5,-10.1 -30.4,-11 -4.9,-1.1 -5.8,1.1 -5.8,14.3 0,6.5 0.3,12.1 0.7,12.4 1.4,1.5 6.7,0.5 17.2,-3.3 z m -20.6,-114.1 c -11.8,-2 -23.2,-9.7 -27.9,-19.1 -4.3,-8.6 -5.5,-16.6 -5.7,-38.3 -0.1,-11 0.1,-20.8 0.5,-21.8 0.7,-1.6 3.8,-1.7 45.8,-1.7 h 45 l 1.1,2.7 c 1.4,3.5 0.5,38.3 -1.1,46.8 -2.3,11.6 -9.4,21.7 -19,26.9 -8.7,4.7 -25.6,6.7 -38.7,4.5 z m 31.3,-17.1 c 5.8,-3 10.7,-8.2 13,-13.6 2.1,-5 4,-26.6 2.8,-31.7 l -1,-4 -32.3,-0.3 c -24.4,-0.2 -32.7,0.1 -33.8,1 -1.2,1 -1.4,3.8 -1.1,15.8 0.3,12.4 0.7,15.2 2.6,19.5 5.6,12.4 14.4,16.6 33.2,16.2 10.2,-0.3 12.1,-0.6 16.6,-2.9 z m -64.7,-222.5 c -1.2,-3.1 -0.5,-10.9 1.1,-12.9 0.6,-0.7 7.6,-4.9 15.6,-9.4 8,-4.5 15.2,-9.3 16,-10.6 2.1,-3.2 1.7,-29 -0.5,-30.3 -0.7,-0.5 -8.3,-1.2 -16.8,-1.6 l -15.4,-0.7 0.3,-6.2 0.3,-6.1 45.4,-0.3 c 35.7,-0.2 45.6,0 46.3,1 1,1.6 0.9,22.7 -0.1,42.8 -0.7,13.8 -1.1,16.1 -3.4,20.6 -4.9,9.6 -13.7,14.8 -25.2,14.8 -9.4,0.1 -17.1,-3.5 -22.3,-10.5 -2,-2.6 -4.5,-5.1 -5.5,-5.4 -1.2,-0.5 -6.2,1.8 -15,6.8 -20.8,11.8 -19.5,11.3 -20.8,8 z m 72.1,-16.2 c 5.7,-2.6 7.1,-6.5 8.3,-21.4 0.6,-7.9 0.6,-15.8 0.1,-19.7 l -0.9,-6.5 h -16 -16 l -0.3,17.3 c -0.1,10.1 0.2,19 0.8,21.3 2.8,10.3 13,14.2 24,9 z m -71,-139.1 c -1,-0.6 -1.5,-2.6 -1.5,-6 0,-3.4 0.5,-5.4 1.5,-6 1.6,-1.1 86.8,-1.4 89.4,-0.4 2.3,0.9 2.3,11.9 0,12.8 -2.6,1 -87.8,0.7 -89.4,-0.4 z m -1,-84.6 c -0.6,-1.4 -0.7,-4.3 -0.4,-6.4 0.7,-4.2 0.6,-4.1 13.4,-9.1 4.3,-1.6 8.4,-3.7 9.2,-4.6 1.7,-2.1 2.4,-30.2 0.9,-36 -1.2,-4.4 -1.9,-4.8 -13.6,-9 -3.9,-1.4 -7.5,-3 -8.2,-3.7 -2,-1.8 -2.6,-8.8 -1.1,-10.9 1.3,-1.8 2.8,-1.4 30.4,8.6 44.8,16.4 60.7,22.5 61.5,23.9 1.2,1.8 1.1,12.6 -0.1,14.8 -0.6,1.1 -5.3,3.5 -11.2,5.8 -11.7,4.6 -78.7,29.2 -79.4,29.2 -0.2,0 -0.9,-1.2 -1.4,-2.6 z m 55,-30.2 c 15.7,-5.7 20,-7.7 20,-9.7 0,-2 -30.6,-13.5 -36,-13.5 -2.6,0 -3,1.9 -3,14 0,6 0.3,11.5 0.6,12.4 1,2.5 3.9,2 18.4,-3.2 z m -31.8,-119.9 -22.3,-0.3 -1,-2.6 c -1.4,-4 -0.1,-9.3 2.5,-9.9 1.1,-0.2 10,-0.8 19.6,-1.2 l 17.5,-0.8 0.3,-23.3 0.2,-23.2 -2.5,-1 c -1.5,-0.6 -9.8,-1 -18.5,-1 -8.7,0 -16.5,-0.3 -17.4,-0.6 -1.2,-0.5 -1.6,-2.1 -1.6,-6.5 v -5.9 l 46.2,0.2 46.3,0.3 0.3,4.9 c 0.2,2.7 -0.2,5.4 -0.8,6 -0.7,0.7 -7.7,1.3 -18.5,1.6 -12.2,0.3 -17.8,0.9 -18.7,1.8 -1.8,1.8 -1.9,44.5 -0.1,46.3 0.9,0.9 6.7,1.4 19,1.7 11.7,0.3 18.1,0.8 18.5,1.6 1,1.5 1,10.4 0,11 -1.2,0.7 -44.5,1.3 -69,0.9 z"
       id="path4576"
       inkscape:connector-curvature="0" />
    <path
       style="fill:#cf6653"
       d="m 36.31,1125 c -0.8,-1 -1.19,-593.3 -0.6,-919.2 l 0.31,-169.8 h 91.28 91.4 l 0.6,117.2 c 0.4,64.4 0.7,163.8 0.7,220.9 0,101.6 0,103.9 1.9,104.9 2.6,1.3 196.9,1.4 199.1,0 1.3,-0.8 1.5,-28.1 2,-221.7 l 0.5,-220.8 91.7,-0.26 91.8,-0.25 v 544.41 544.6 h -2.3 c -1.2,1 -41.8,1 -90.3,1 -68.9,0 -88.4,0 -89.6,-1 -1.5,-1 -1.7,-21 -2,-240.7 -0.3,-228.1 -0.4,-239.3 -2.1,-241 -1.7,-1.7 -7,-1.8 -100.3,-1.8 -79.4,0 -98.6,0.3 -99.3,1.3 -0.4,0.7 -1.1,109.4 -1.4,241.4 -0.6,188.8 -1,240.8 -2,240.8 -0.6,1 -41.6,1 -90.9,1 -70.66,0 -89.85,0 -90.49,-1 z m 1156.69,0 c -2,-2 -2,-36 -2,-545.3 l 1,-543.2 h 157 c 145,0 159,0.14 172,1.79 109,13.44 180,65.71 216,157.71 10,27.4 18,61.3 23,99 2,24.4 3,71.1 3,281 0,253.2 -1,275.7 -7,313 -23,145 -104,222 -247,235 -8,1 -68,1 -164,2 -141,0 -151,0 -152,-1 z m 272,-152.1 c 30,-1.8 51,-7.9 69,-20.1 25,-17.1 40,-51.4 43,-97.8 1,-12.2 1,-109.6 1,-287.5 l -1,-269 -2,-11 c -8,-41.8 -20,-65.4 -43,-80 -13,-9 -32,-15.8 -52,-18.6 -11,-1.4 -100,-2.3 -102,-1 -1,0.9 -1,45.6 -1,392.5 0,215.3 0,391.8 0,392.3 2,2 56,2.2 88,0.2 z m -473.5,147.1 c -2.2,-1 -14.6,-9 -27.5,-17 l -23.5,-14 -16.5,-1 h -16.5 l -0.3,-6 -0.3,-5 h 16.3 c 19,-1 14.1,1 49.7,-21 12.8,-8 23.7,-15 24.2,-14 1.1,0 1.2,9 0.1,11 -0.4,0 -7.2,5 -15.2,10 -17.4,10 -25.1,15 -27,18 -1.3,1 -1.1,2 2.2,4 2,2 11,8 20,13 20.3,13 21,14 20.6,20 -0.2,2 -0.8,4 -1.3,5 -0.5,0 -2.8,-1 -5,-3 z m -84.5,-133.4 c 0,-2.4 0.6,-4.8 1.2,-5.4 0.7,-0.5 4.6,-2.1 8.6,-3.6 12.6,-4.5 13,-4.8 13.8,-11.2 0.3,-3 0.5,-12 0.2,-20 -0.3,-11.1 -0.8,-14.8 -1.9,-16 -0.9,-0.8 -6,-3.2 -11.5,-5.2 l -9.9,-3.8 v -4.9 c 0,-4.4 0.2,-5 2,-4.7 2,0.3 52.4,18.4 74.1,26.7 6.6,2.5 12.5,5.2 13.1,6.2 0.7,0.9 1.3,4 1.3,6.8 0,2.8 -0.6,5.8 -1.3,6.7 -0.6,0.9 -8.6,4.4 -17.7,7.8 -33.5,12.6 -68.3,25 -70.1,25 -1.6,0 -1.9,-0.8 -1.9,-4.4 z m 56.5,-25.6 c 25.7,-9.3 25.7,-9.8 1.4,-18.9 -16.9,-6.3 -21.3,-7.1 -22.8,-4.3 -0.6,1.2 -1.1,7.4 -1.1,14.6 0,17.2 -0.5,17 22.5,8.6 z m -29,-116.3 c -6.6,-2.2 -12.4,-5.6 -16.4,-9.6 -8.7,-8.7 -11.3,-20.3 -10.9,-48.7 l 0.3,-18.9 43.5,-0.2 c 26.4,-0.2 44.1,0.1 45,0.7 1.3,0.8 1.5,4.1 1.4,20.2 0,11 -0.6,22.1 -1.3,25.8 -2.7,13.7 -9.2,22.4 -20.9,28.2 -6.5,3.2 -7,3.3 -21.7,3.5 -10.3,0.2 -16.2,-0.1 -19,-1 z m 26.5,-10.8 c 12.1,-1.9 20,-8.2 24.1,-18.9 2.6,-6.7 3.9,-30.2 2,-33.8 -1.2,-2.2 -1.2,-2.2 -35.1,-2.2 h -33.9 l -1.2,4.2 c -1.5,5.5 -0.5,23.4 1.6,30.5 4.7,15.9 21.1,23.7 42.5,20.2 z m -54,-232.3 v -6.5 l 14.7,-8.3 c 8.2,-4.5 15.8,-9.2 17,-10.5 2.2,-2.1 2.3,-3 2.3,-16.6 0,-10.7 -0.4,-14.8 -1.4,-16.2 -1.2,-1.7 -3.1,-2 -16.7,-2.5 l -15.4,-0.5 v -5 -5 l 44.1,-0.3 c 36.9,-0.2 44.3,0 45.3,1.2 1.6,1.9 -0.2,53.4 -2,59.1 -1.8,5.4 -10.2,13.7 -15.5,15.3 -6.8,2 -16.2,1.5 -21.9,-1.2 -4.5,-2 -6.8,-4.1 -12.7,-11.5 -1,-1.1 -2.7,-2.1 -3.9,-2.1 -1.2,0 -8.9,3.8 -17,8.5 -8.2,4.7 -15.3,8.5 -15.9,8.5 -0.6,0 -1,-2.7 -1,-6.4 z m 71.6,-9.2 c 2.8,-1.4 4.6,-3.4 6.4,-6.9 2.3,-4.7 2.4,-5.8 2.5,-23.1 0,-13.7 -0.3,-18.6 -1.3,-19.6 -2,-2 -31.9,-1.9 -33.2,0.2 -2.4,3.9 -2.4,30.9 0.1,40.3 1.1,4.2 6.7,10.3 10.1,11 4.3,1 11.6,0 15.4,-1.9 z m -69.9,-141 c -1.3,-0.4 -1.7,-1.6 -1.7,-5.4 0,-4.1 0.3,-5 2.1,-5.5 1.2,-0.4 21.4,-0.4 45,0 l 42.9,0.8 v 4.8 4.9 h -18.8 c -10.3,0 -29.7,0.2 -43.2,0.5 -13.5,0.2 -25.3,0.2 -26.3,-0.1 z m -1.5,-88.6 0.3,-5.2 9.9,-3.8 c 5.5,-2 10.7,-4.4 11.5,-5.3 1.3,-1.3 1.6,-4.7 1.6,-20.6 v -19.1 l -2.7,-2.3 c -1.5,-1.3 -5.7,-3.3 -9.5,-4.5 -10.2,-3.3 -11.3,-4.2 -11.3,-9.5 0,-3.2 0.4,-4.5 1.4,-4.5 2.6,0 86,30.5 88.3,32.3 1.6,1.2 1.7,11 0.2,13.8 -0.5,1.1 -2.2,2.5 -3.7,3.1 -14.9,5.8 -83.6,30.8 -84.8,30.8 -1.2,0 -1.4,-1.1 -1.2,-5.2 z m 50.9,-23.4 c 18.5,-6.3 24.9,-9.2 24.9,-11.5 0,-1 -0.9,-2.3 -2.1,-3 -3.5,-1.8 -22.9,-8.9 -30.1,-10.9 -9.6,-2.7 -9.8,-2.4 -9.8,14.4 0,12.4 0.6,15.6 3.1,15.6 0.3,0 6.7,-2.1 14,-4.6 z m -50.4,-124.1 c -0.4,-0.3 -0.7,-2.6 -0.7,-4.9 0,-5.4 -0.6,-5.2 21.2,-5.6 12,-0.2 17.1,-0.7 18,-1.6 1,-1 1.4,-7 1.6,-23.7 0.5,-28.8 2.2,-26.5 -20.7,-26.5 -9.3,0 -17.6,-0.3 -18.5,-0.6 -1.2,-0.4 -1.6,-2 -1.6,-5.5 v -4.9 l 45.2,0.2 45.3,0.3 0.3,3.9 c 0.2,2.1 -0.2,4.4 -0.8,5 -0.6,0.6 -8.1,1.3 -18.9,1.6 -9.9,0.3 -18.3,0.9 -18.8,1.3 -0.4,0.5 -0.8,11.4 -0.8,24.2 0,17.8 0.3,23.7 1.3,24.7 0.9,0.9 6.4,1.4 19.5,1.8 l 18.2,0.5 v 5 5 l -44.6,0.3 c -24.5,0.1 -44.9,-0.1 -45.2,-0.5 z"
       id="path4574"
       inkscape:connector-curvature="0" />
    <path
       style="fill:#ce5e4a"
       d="m 37.67,1123 c -0.37,0 -0.67,-244.6 -0.67,-543.2 v -542.8 h 89.9 90 l 0.6,4.25 c 0.3,2.34 0.6,101.75 0.8,220.95 0.2,170.6 0.5,217 1.4,217.9 1.5,1.5 142.8,2.6 179.6,1.4 20.6,-0.7 22.8,-0.9 23.7,-2.6 0.7,-1.1 1.3,-80.8 1.7,-221.9 l 0.6,-220 h 89.9 89.8 v 543.5 543.5 h -89.9 -89.8 l -0.6,-238.3 c -0.3,-131 -0.9,-239.5 -1.3,-241 -0.4,-1.7 -1.7,-3.3 -3.3,-4 -1.9,-0.8 -28.8,-1.1 -100.4,-1.1 -90.8,0.1 -97.9,0.2 -99.5,1.8 -1.6,1.6 -1.7,16.9 -1.9,237.9 -0.2,129.7 -0.5,237.7 -0.8,240.7 l -0.6,4 h -89.3 c -49.09,0 -89.57,0 -89.93,-1 z m 1155.33,-542.5 v -543.65 l 154,0.42 c 165,0.46 163,0.39 195,5.81 45,7.5 87,25.01 118,49.28 9,7.32 29,26.84 37,36.64 38,47.2 59,113.5 63,198.1 1,24.8 1,433.6 0,486.4 -1,21.9 -2,44.7 -2,52 -10,85.4 -36,144.5 -82,189.5 -39,37 -91,59 -161,67 -14,1 -36,1 -169,2 h -153 z m 270,394.5 c 56,-3.4 87,-22.1 104,-62 4,-10.8 10,-32.6 11,-44.9 2,-15.8 2,-551.9 0,-570.6 -1,-14.3 -6,-34.4 -11,-48.4 -13,-33.4 -38,-52.8 -79,-60.5 -12,-2.4 -44,-3.8 -80,-3.4 -24,0.2 -31,0.6 -32,1.6 -1,1.1 -1,73.2 -1,393.1 0,384 0,391.9 1,394 2,2.1 3,2.1 36,2.1 19,0 42,-0.5 51,-1 z m -473.9,142 c -10,-6 -44.4,-28 -47.9,-29 -2.4,-2 -6.2,-2 -17.7,-2 h -14.5 v -4 -4 h 15.3 15.3 l 18.4,-11 c 10.2,-7 22.3,-14 27,-17 4.7,-3 9.1,-6 9.7,-6 1,-1 1.3,0 1.3,4 v 5 l -12.7,7 c -17.8,10 -29.9,18 -30.6,20 -0.4,1 -0.4,3 0,4 0.7,1 13.2,10 30.2,20 6.7,4 12.5,8 12.8,9 0.2,0 0.3,2 0.1,4 l -0.3,4 z m -80.1,-131.4 c 0,-3.3 0,-3.4 10.1,-7.1 5.5,-2.1 10.7,-4.5 11.5,-5.2 1.9,-2 2.1,-41 0.1,-43.7 -0.7,-0.9 -5.7,-3.4 -11.2,-5.5 l -10,-3.7 -0.3,-3.8 c -0.3,-2.9 0,-3.7 1,-3.4 0.7,0.3 10.8,4 22.3,8.2 11.5,4.2 30.5,11.1 42,15.4 l 21,7.7 0.3,6.7 0.3,6.6 -7.8,3 c -4.3,1.7 -19.1,7.1 -32.8,12.2 -13.8,5 -29.2,10.7 -34.4,12.6 -5.2,1.9 -10,3.4 -10.8,3.4 -0.8,0 -1.3,-1.2 -1.3,-3.4 z m 49.9,-21.2 c 24.3,-8.3 29.5,-11.5 25.5,-15.5 -2.1,-2 -22.2,-10 -32.5,-12.9 -8.1,-2.2 -10.4,-1.8 -11.8,2.2 -1.4,3.9 -1.4,23.8 -0.1,27.2 1.4,3.7 5.9,3.4 18.9,-1 z m -19.7,-120.5 c -11.2,-1.9 -22.1,-9.9 -26.3,-19.3 -2.9,-6.6 -3.9,-15.8 -3.9,-36.4 v -19.2 h 43.5 43.5 v 17.7 c 0,9.8 -0.5,20.6 -1,24.1 -3.3,19.9 -14.5,31.4 -32.8,33.3 -9.5,1 -16.1,0.9 -23,-0.2 z m 27.5,-9.5 c 10.4,-2.9 18.9,-12.1 21.4,-23.5 0.8,-3.5 1.4,-11.7 1.4,-18.2 0,-17 3.2,-15.7 -38.1,-15.7 h -33.4 l -1.4,2.2 c -2.1,3.5 -2.7,11.2 -1.7,22.1 1.3,13.4 3.5,19.1 9.6,25.2 9.4,9.4 25.7,12.4 42.2,7.9 z m -57.5,-233.5 0.3,-5.3 14,-7.8 c 20.1,-11.3 19,-9.6 19,-28.3 0,-20.6 0.8,-19.7 -19,-20.3 l -14.6,-0.5 0.3,-3.6 c 0.3,-3.3 0.5,-3.6 3.5,-3.5 1.8,0 21.4,0.1 43.4,0.2 l 40.1,0.2 -0.5,25.7 c -0.5,28.8 -1.3,33.5 -7,40 -4.6,5.2 -10.7,7.6 -19.2,7.6 -8.8,0 -15.1,-2.6 -19.1,-7.9 -5.8,-7.5 -7.3,-8.7 -10.5,-8 -1.7,0.3 -8.9,4 -16.2,8.2 -7.3,4.2 -13.6,7.9 -14,8.1 -0.4,0.3 -0.7,-1.9 -0.5,-4.8 z m 69.3,-6.6 c 8.9,-4.5 10.7,-10 10.9,-33.4 0.1,-22.5 1.2,-21.4 -20,-21.4 -20.5,0 -19.4,-1.2 -19.4,21.1 0,8.9 0.5,18.5 1.1,21.3 2.6,12.3 15.7,18.3 27.4,12.4 z m -69.5,-148.3 v -4 l 43.2,0.2 43.3,0.3 v 3.5 3.5 l -43.3,0.3 -43.2,0.2 z m 0.2,-83.7 0.3,-3.7 10,-3.8 c 5.5,-2.1 10.5,-4.5 11.1,-5.3 1.5,-2 2.8,-26.5 1.9,-34.7 -0.9,-7.9 -2.3,-10.2 -7.7,-12.2 -2.4,-0.9 -6.9,-2.5 -10.1,-3.7 -5.4,-1.9 -5.7,-2.2 -5.7,-5.5 0,-2 0.5,-3.4 1.2,-3.4 0.7,0 20.2,7 43.3,15.5 23,8.5 42.1,15.5 42.3,15.5 0.1,0 0.2,3 0,6.7 l -0.3,6.8 -7.5,2.8 c -17.1,6.6 -77.3,28.7 -78.2,28.7 -0.5,0 -0.8,-1.7 -0.6,-3.7 z m 41.9,-18.7 c 12.7,-4.2 26.4,-9.3 30.8,-11.6 5.9,-3 5.4,-5.6 -1.9,-9.2 -8.4,-4.1 -33.2,-12 -36.5,-11.6 -4,0.4 -4.8,4.1 -4.3,19.6 0.3,10.8 0.5,12.5 2.2,13.8 2.4,1.7 1,1.8 9.7,-1 z m -39.4,-129.3 c -2.3,-0.4 -2.7,-0.9 -2.7,-3.7 v -3.3 l 17.7,-0.6 c 9.8,-0.3 18.6,-0.9 19.6,-1.2 2.8,-1.1 3.2,-4.7 3.2,-26.5 0,-21.7 -0.4,-25.3 -3.2,-26.6 -1,-0.4 -9.8,-0.9 -19.6,-1.2 l -17.8,-0.4 0.3,-3.6 0.3,-3.7 h 43 43 l 0.3,3.6 0.3,3.6 -18.2,0.6 c -11,0.4 -18.7,1.1 -19.5,1.8 -1.1,0.9 -1.4,6.2 -1.4,25.3 0,13.2 0.5,24.8 1,25.6 1,1.7 11.6,2.8 27.8,2.9 l 10.3,0.1 -0.3,3.8 -0.3,3.7 -40.5,0.1 c -22.3,0.1 -41.7,-0.1 -43.3,-0.3 z"
       id="path4572"
       inkscape:connector-curvature="0" />
  </g>
</svg>
