<?xml version="1.0" encoding="UTF-8" standalone="no"?>
<!-- Created with Inkscape (http://www.inkscape.org/) -->

<svg
   xmlns:dc="http://purl.org/dc/elements/1.1/"
   xmlns:cc="http://creativecommons.org/ns#"
   xmlns:rdf="http://www.w3.org/1999/02/22-rdf-syntax-ns#"
   xmlns:svg="http://www.w3.org/2000/svg"
   xmlns="http://www.w3.org/2000/svg"
   xmlns:sodipodi="http://sodipodi.sourceforge.net/DTD/sodipodi-0.dtd"
   xmlns:inkscape="http://www.inkscape.org/namespaces/inkscape"
   version="1.1"
   id="svg2"
   width="2787"
   height="262.3"
   viewBox="0 0 2787 262.3"
   sodipodi:docname="logo_footer.svg"
   inkscape:version="0.92.3 (2405546, 2018-03-11)">
  <metadata
     id="metadata8">
    <rdf:RDF>
      <cc:Work
         rdf:about="">
        <dc:format>image/svg+xml</dc:format>
        <dc:type
           rdf:resource="http://purl.org/dc/dcmitype/StillImage" />
        <dc:title></dc:title>
      </cc:Work>
    </rdf:RDF>
  </metadata>
  <defs
     id="defs6" />
  <sodipodi:namedview
     pagecolor="#ffffff"
     bordercolor="#666666"
     borderopacity="1"
     objecttolerance="10"
     gridtolerance="10"
     guidetolerance="10"
     inkscape:pageopacity="0"
     inkscape:pageshadow="2"
     inkscape:window-width="1920"
     inkscape:window-height="1051"
     id="namedview4"
     showgrid="false"
     inkscape:zoom="0.2709"
     inkscape:cx="1399"
     inkscape:cy="1379"
     inkscape:window-x="-9"
     inkscape:window-y="-9"
     inkscape:window-maximized="1"
     inkscape:current-layer="g12" />
  <g
     id="g12"
     transform="translate(224.1,-604.1)">
    <path
       style="fill:#cf5f4b;stroke-width:1.4562"
       d="m -224.1,735.3 v -131.1 h 18.2 18.2 v 55.1 c 0,40.8 0.5,55.4 1.7,56.8 2.6,2.5 138.21,2.5 140.61,0 1.31,-1.4 1.75,-16 1.75,-56.8 v -55.1 h 18.24 18.239 v 131.1 131 h -18.239 -18.24 v -56.6 c 0,-46 -0.44,-57 -1.97,-58.3 -1.31,-1.2 -21.4,-1.5 -71.69,-1.3 l -69.7,0.5 -0.4,57.9 -0.3,57.8 h -18.2 -18.2 z m 410.9,129.3 c 0.4,-1.1 22.3,-60.1 48.6,-131.2 l 48,-129.3 23.1,0.4 23.2,0.5 47.7,129.5 c 26.3,71.3 47.9,130.1 47.9,130.7 0,0.7 -8.1,1.1 -18.1,1.1 h -18 l -8.4,-23.6 c -4.6,-13.1 -10.1,-28.2 -12.2,-33.9 l -3.9,-10.2 -58.5,-0.4 c -54.5,-0.3 -58.6,-0.2 -59.8,2.2 -0.8,1.4 -6.1,15.8 -11.7,32 -5.7,16.1 -10.8,30.4 -11.2,31.8 -0.8,1.7 -4.1,2.1 -19.1,2.1 -14,0 -18,-0.4 -17.6,-1.7 z m 164.1,-102.7 c 0,-2.4 -9.3,-30.2 -20.7,-62.3 -17.8,-50.2 -21.1,-58.4 -23.7,-58.7 -2.2,-0.3 -3.5,0.7 -4.7,3.6 -7.1,17.7 -41,115.2 -41,118 v 3.4 h 45.1 45.2 z m 271,-26.6 v -131.1 h 18.2 18.2 v 131.1 131 h -18.2 -18.2 z m 253.7,0 v -131.1 h 64.4 c 69,0 85,1 102,6 21,6.6 41,20.4 49,36.5 7,15.4 11,46.3 6,63 -5,20.8 -19,37.2 -42,48.7 -5,2 -7,4.1 -7,5.9 0,1.6 13,25.1 30,52.3 l 29,49.7 h -23 -22 l -27,-47.6 c -14,-26.4 -27,-48.3 -28,-48.8 -3,-2.1 -92.1,-1.3 -93.2,0.5 -2.2,1.4 -2.2,14.2 -2.2,48.9 v 47 h -18.6 -17.4 z m 137.4,0 c 25,-3.2 41,-13.1 45,-30.1 3,-11.4 2,-30.3 -2,-40.9 -5,-10.7 -16,-19.8 -28,-23.9 -8,-3.1 -13,-3.3 -60.7,-3.9 -38.2,-0.3 -52.4,-0.1 -53.5,1.2 -2.2,1.5 -2.2,9.7 -2.2,48.1 0,40.2 0,46.7 2.2,48.6 2.2,2 7.6,2.3 44.8,2.3 24,0 48.4,-0.7 54.4,-1.4 z m 533,0.1 v -131.2 h 51 c 75,0 92,2.4 120,15.5 12,5.5 16,8.8 26,19.2 11,10.6 13,14.8 19,26.5 14,24.7 18,53.7 15,86.3 -6,61 -32,95.6 -84,109.8 l -16,4 -65,0.5 -66,0.4 z m 130,96.2 c 25,-6.5 43,-20.1 51,-39.8 10,-18.4 11,-25.9 10,-57.9 0,-27.4 0,-29 -3,-40.1 -10,-28.3 -28,-45.7 -58,-54.1 -12,-3.2 -87,-4.8 -92,-2 -1,1.6 -1,15.2 -1,97.7 0,87.7 0,96 2,98.2 3,2.2 7,2.4 42,1.7 33,-0.4 40,-1.1 49,-3.7 z m 275,32.2 c 0,-1.4 22,-58.6 47,-127.1 27,-68.5 48,-126.3 48,-128.4 l 1,-4.1 h 23 c 21,0 24,0.2 24,2.5 2,1.4 23,59.7 49,129.3 26,69.7 45,127.5 48,128.6 0,1.4 -4,1.7 -18,1.4 l -20,-0.4 -10,-33.6 -14,-33.4 -59,-0.4 -59,-0.3 -6,16.2 c -2,9.1 -9,24.5 -11,34.4 l -7,17.8 h -18 c -17,0 -18,-0.3 -18,-2.5 z m 165,-101.2 c 0,-1.9 -11,-29.8 -20,-62.3 -21,-54.9 -22,-59 -26,-59 -2,0 -4,4.1 -24,58.3 -12,32.1 -20,59.3 -20,60.4 0,6 -1,5.9 44,5.9 h 46 z m 307,57.6 c 0,-32 0,-46.8 -1,-49 -2,-1.7 -24,-38.5 -51,-81.9 -28,-43.4 -49,-80.2 -52,-81.9 l -1,-3.2 h 21 22 l 37,64.8 c 33,52.6 42,64.9 43,64.9 3,-0.3 12,-13.2 42,-64.6 l 40,-64.3 19,-0.5 c 12,-0.2 21,-0.1 21,0.4 0,0.3 -23,38.2 -51,84.2 l -53,83.5 v 46.8 46.9 h -17 -19 z"
       id="path14"
       inkscape:connector-curvature="0" />
  </g>
</svg>
