<?xml version="1.0" encoding="UTF-8" standalone="no"?>
<!-- Created with Inkscape (http://www.inkscape.org/) -->

<svg
   xmlns:dc="http://purl.org/dc/elements/1.1/"
   xmlns:cc="http://creativecommons.org/ns#"
   xmlns:rdf="http://www.w3.org/1999/02/22-rdf-syntax-ns#"
   xmlns:svg="http://www.w3.org/2000/svg"
   xmlns="http://www.w3.org/2000/svg"
   xmlns:sodipodi="http://sodipodi.sourceforge.net/DTD/sodipodi-0.dtd"
   xmlns:inkscape="http://www.inkscape.org/namespaces/inkscape"
   version="1.1"
   id="svg2"
   width="2566"
   height="252.4"
   viewBox="0 0 2566 252.4"
   sodipodi:docname="logo_footer.svg"
   inkscape:version="0.92.3 (2405546, 2018-03-11)">
  <metadata
     id="metadata8">
    <rdf:RDF>
      <cc:Work
         rdf:about="">
        <dc:format>image/svg+xml</dc:format>
        <dc:type
           rdf:resource="http://purl.org/dc/dcmitype/StillImage" />
        <dc:title></dc:title>
      </cc:Work>
    </rdf:RDF>
  </metadata>
  <defs
     id="defs6" />
  <sodipodi:namedview
     pagecolor="#000000"
     bordercolor="#666666"
     borderopacity="1"
     objecttolerance="10"
     gridtolerance="10"
     guidetolerance="10"
     inkscape:pageopacity="0"
     inkscape:pageshadow="2"
     inkscape:window-width="1920"
     inkscape:window-height="1051"
     id="namedview4"
     showgrid="false"
     inkscape:zoom="0.25"
     inkscape:cx="1014"
     inkscape:cy="1168"
     inkscape:window-x="-9"
     inkscape:window-y="-9"
     inkscape:window-maximized="1"
     inkscape:current-layer="svg2" />
  <g
     id="g12"
     transform="translate(-30.67,-30.5)">
    <path
       style="fill:#fefefe;stroke-width:1.3333"
       d="m 30.67,156.7 v -126.04 h 22.66 22.67 v 51.33 51.31 h 59.3 59.4 v -51.31 -51.33 h 22.6 22.7 v 126.04 125.9 h -22.7 -22.6 v -54 -54 h -59.4 -59.3 v 54 54 h -22.67 -22.66 z m 373.33,123 c 0,-1.7 20.4,-58.4 45.6,-126.1 l 45.6,-122.99 26.7,0.36 26.8,0.36 44.9,121.97 c 24.8,67.1 45.1,123.6 45.1,125.7 v 3.6 h -23.1 -23.1 l -11.3,-31.6 -11.2,-31.7 -48.7,-0.4 -48.6,-0.3 -11.2,32 -11.1,32 h -23.2 c -23.2,0 -23.2,0 -23.2,-2.9 z m 149.3,-108 c -1.4,-3.9 -9.2,-25.6 -17.2,-48.2 -10,-28.75 -14.6,-40.38 -15.3,-38.66 -3.5,8.75 -32.8,91.66 -32.8,92.56 0,0.7 14.9,1.2 34,1.2 h 33.9 z m 250.7,-15 v -126.04 h 23.3 23.4 v 126.04 125.9 h -23.4 -23.3 z m 233,-0.2 v -125.98 l 75,0.46 c 71,0.44 74,0.56 84,3.38 17,4.58 28,10.45 37,20.26 15,14.17 20,27.36 21,53.38 1,26.4 -4,43.5 -19,58 -4,4.4 -12,10.4 -17,13.2 l -9,5.2 3,4.1 c 36,61.3 51,87.6 51,90.5 v 3.6 l -27,-0.2 -27,-0.4 -25,-44.3 -25,-44.3 -38,-0.1 h -38 v 44.7 44.6 h -23 -23 z m 144,-9.7 c 16,-5.9 25,-17.5 25,-33 0,-15.78 -8,-29.22 -20,-35.44 -11,-5.78 -17,-6.34 -61,-6.35 h -42 v 39.39 39.4 l 45,-0.4 c 42,-0.5 45,-0.7 53,-3.6 z m 471,9.9 v -126.2 l 64,0.47 64,0.48 13,3.59 c 43,11.49 68,38.77 79,80.96 3,14.9 4,53 1,70.4 -8,51.7 -36,81.4 -85,92.4 -12,2.8 -17,2.9 -75,3.4 l -61,0.7 z m 116,82.5 c 29,-6.2 49,-24.8 57,-55.9 3,-12.9 3,-42 0,-54 -6,-23.4 -18,-39.35 -37,-48.43 -16,-7.54 -24,-8.82 -60,-8.85 h -31 v 84.68 84.6 h 31 c 21,0 32,-0.5 40,-2.1 z m 252,39.7 c 0,-2.8 57,-158.2 88,-239.26 l 3,-9.03 26,0.36 27,0.36 45,122.67 c 26,67.4 46,124 46,125.6 0,3 0,3 -23,3 h -24 l -8,-21.6 c -4,-12 -9,-26.2 -11,-31.7 l -4,-10 -48,-0.4 -49,-0.3 -11,32 -10,32 h -24 -23 z m 151,-101.2 c 0,-2 -34,-93.67 -34,-93.7 0,0 -6,16.6 -13,37 -8,20.3 -16,41.6 -17,47.2 l -4,10.4 h 34 c 19,0 34,-0.4 34,-0.9 z m 282,60.7 v -44.4 l -49,-79.1 c -27,-43.48 -49,-80.22 -49,-81.65 0,-2.48 1,-2.59 26,-2.59 h 27 l 33,56.09 c 19,30.85 35,56.35 35,56.55 0,0.4 16,-24.7 35,-55.7 l 34,-56.27 26,-0.36 c 26,-0.36 26,-0.31 26,2.36 0,1.49 -21,38.13 -48,81.37 l -49,78.7 v 44.6 44.6 h -23 -24 z"
       id="path14"
       inkscape:connector-curvature="0" />
  </g>
</svg>
